<svg height="682.66669pt" viewBox="-21 -21 682.66669 682.66669" width="682.66669pt" xmlns="http://www.w3.org/2000/svg"><path d="m207.695312 308.628906c41.425782 0 80.683594-14.089844 112.304688-40 31.621094 25.910156 70.878906 40 112.304688 40 47.429687 0 92.023437-18.472656 125.5625-52.011718 69.203124-69.203126 69.234374-181.820313.066406-251.054688-.003906-.007812-.003906-.011719-.007813-.015625l-.003906-.003906c-.023437-.015625-.035156-.035157-.054687-.050781-3.65625-3.65625-8.449219-5.4804692-13.238282-5.4804692-4.792968 0-9.59375 1.8281252-13.257812 5.4921872-7.316406 7.308594-7.3125 19.175782-.019532 26.503906.011719.007813.015626.015626.023438.023438 0 0 .007812.007812.011719.015625 23.617187 23.648437 23.597656 62.113281-.035157 85.746094-11.460937 11.460937-26.695312 17.769531-42.894531 17.769531s-31.433593-6.308594-42.894531-17.769531c-18.539062-18.535157-43.1875-28.746094-69.410156-28.746094-20.375 0-39.800782 6.167969-56.148438 17.613281-16.347656-11.449218-35.777344-17.617187-56.152344-17.617187-26.21875 0-50.867187 10.210937-69.40625 28.753906-11.460937 11.457031-26.695312 17.765625-42.898437 17.765625s-31.433594-6.308594-42.894531-17.765625c-23.632813-23.636719-23.648438-62.101563-.039063-85.75.003907-.007813.011719-.011719.015625-.015625.007813-.007812.011719-.015625.023438-.023438 7.320312-7.320312 7.320312-19.195312 0-26.515624-3.667969-3.660157-8.460938-5.492188-13.261719-5.492188-4.796875 0-9.59375 1.832031-13.257813 5.492188 0 0-.019531.019531-.03125.035156v.003906c-.011718.007812-.023437.015625-.023437.015625-.003906.003906-.007813.007813-.011719.015625-69.167968 69.234375-69.136718 181.851562.066406 251.054688 33.535157 33.539062 78.132813 52.011718 125.5625 52.011718zm0 0"/><path d="m640 337.71875c0-19.394531-12.035156-60.394531-23.632812-95.394531-8.789063 14.542969-19.445313 28.265625-31.984376 40.808593-40.617187 40.621094-94.632812 62.996094-152.078124 62.996094-24.886719 0-49.257813-4.195312-72.429688-12.464844-13.960938-4.984374-27.296875-11.375-39.875-19.101562-12.578125 7.726562-25.914062 14.117188-39.875 19.101562-23.171875 8.269532-47.542969 12.464844-72.429688 12.464844-57.445312 0-111.460937-22.375-152.078124-62.996094-12.539063-12.542968-23.195313-26.273437-31.984376-40.820312-11.597656 35.011719-23.632812 76.011719-23.632812 95.40625 0 49.015625 33.011719 90.460938 77.972656 103.273438-4.683594 12.15625-7.09375 25.136718-7.09375 38.496093 0 59.191407 48.160156 107.351563 107.355469 107.351563 15.492187 0 30.421875-3.222656 44.15625-9.453125 17.140625 37.417969 54.898437 62.613281 97.609375 62.613281s80.46875-25.195312 97.609375-62.617188c13.734375 6.230469 28.664063 9.457032 44.152344 9.457032 59.195312 0 107.355469-48.160156 107.355469-107.351563 0-13.359375-2.414063-26.339843-7.089844-38.503906 44.957031-12.804687 77.972656-54.25 77.972656-103.265625zm0 0"/></svg>